<?xml version="1.0" encoding="UTF-8"?>
<svg width="240.7px" height="90px" viewBox="0 0 240.7 90" version="1.1" xmlns="http://www.w3.org/2000/svg" xmlns:xlink="http://www.w3.org/1999/xlink">
    <title>Group 3</title>
    <g id="Page-1" stroke="none" stroke-width="1" fill="none" fill-rule="evenodd">
        <g id="Group-3" fill-rule="nonzero">
            <path d="M240.4,74.5 L239.9,75.8 L239.7,75.8 L239.2,74.5 L239.2,75.8 L238.9,75.8 L238.9,74 L239.3,74 L239.8,75.4 L240.3,74 L240.7,74 L240.7,75.8 L240.4,75.8 L240.4,74.5 L240.4,74.5 Z M238.7,74.3 L238.2,74.3 L238.2,75.9 L237.9,75.9 L237.9,74.3 L237.4,74.3 L237.4,74 L238.7,74 L238.7,74.3 Z" id="Shape" fill="#262A38"></path>
            <path d="M154.1,13.9 L154.1,75.3 L141.6,75.3 L141.6,69 C140.3,71.2 138.4,73 136.1,74.1 C133.7,75.3 130.9,76 128.1,76 C124.7,76.1 121.3,75.1 118.4,73.2 C115.5,71.2 113.2,68.6 111.7,65.4 C110.1,61.7 109.3,57.8 109.3,53.8 C109.2,49.8 110,45.9 111.7,42.3 C113.2,39.2 115.4,36.5 118.3,34.7 C121.2,32.8 124.6,31.9 128.1,32 C130.8,32 133.5,32.6 135.8,33.8 C138.1,34.9 140,36.6 141.3,38.8 L141.3,18.1 L154.1,13.9 Z M139.1,63.2 C140.7,61.1 141.6,58 141.6,54 C141.6,50 140.8,47 139.1,44.9 C137.4,42.8 134.7,41.6 131.9,41.6 C129.1,41.4 126.4,42.7 124.7,44.8 C123,46.9 122.1,49.9 122.1,53.8 C122.1,57.8 123,60.9 124.7,63.1 C126.4,65.3 129.2,66.5 131.9,66.4 C135.1,66.5 137.5,65.3 139.1,63.2 Z" id="Shape" fill="#FFFFFF"></path>
            <path d="M198.6,34.7 C201.5,36.6 203.8,39.3 205.2,42.3 C206.8,45.9 207.6,49.8 207.6,53.8 C207.7,57.8 206.9,61.8 205.2,65.4 C203.7,68.6 201.5,71.3 198.5,73.2 C195.7,75.1 192.2,76 188.8,76 C186,76.1 183.3,75.4 180.8,74.1 C178.5,73 176.6,71.2 175.4,69 L175.4,75.3 L163,75.3 L163,18.1 L175.6,13.9 L175.6,39 C176.8,36.8 178.7,35 181,33.9 C183.4,32.6 186.1,31.9 188.9,32 C192.3,31.9 195.7,32.9 198.6,34.7 Z M192.4,63.1 C194.1,60.9 194.9,57.8 194.9,53.7 C194.9,49.8 194.1,46.8 192.4,44.7 C190.7,42.6 188.3,41.5 185.2,41.5 C182.4,41.3 179.7,42.6 178,44.8 C176.3,47 175.5,50 175.5,53.9 C175.5,57.9 176.3,61 178,63.1 C179.7,65.3 182.4,66.5 185.2,66.4 C188.1,66.6 190.7,65.3 192.4,63.1 Z" id="Shape" fill="#FFFFFF"></path>
            <path d="M225,42.5 L225,58.9 C225,61.3 225.7,63 226.8,64 C228.1,65.1 229.8,65.7 231.6,65.6 C233,65.6 234.4,65.4 235.8,65 L235.8,74.8 C233.4,75.6 231,76 228.6,75.9 C223.4,75.9 219.4,74.4 216.6,71.5 C213.8,68.6 212.4,64.4 212.4,59 L212.4,23 L225,19 L225,33 L235.7,33 L235.7,42.4 L225,42.4 L225,42.5 Z" id="Path" fill="#FFFFFF"></path>
            <path d="M86.2,3.7 C88.3,5.7 89.7,8.4 90,11.3 C90,12.5 89.7,13.3 88.9,14.9 C88.2,16.4 79.1,32.1 76.4,36.4 C74.9,38.9 74,41.9 74,44.9 C74,47.9 74.8,50.8 76.4,53.4 C79.1,57.7 88.1,73.4 88.9,75 C89.6,76.5 90,77.3 90,78.5 C89.7,81.4 88.4,84.1 86.3,86.1 C84.3,88.2 81.6,89.6 78.7,89.8 C77.5,89.8 76.7,89.5 75.2,88.7 C73.7,88 57.8,79.2 53.5,76.5 C53.2,76.3 52.8,76.1 52.4,75.9 L31.1,63.3 C31.6,67.4 33.4,71.3 36.3,74.1 C36.9,74.7 37.4,75.2 38.1,75.6 C37.6,75.8 37,76.1 36.6,76.4 C32.3,79.1 16.6,88.1 15,88.9 C13.5,89.6 12.7,90 11.4,90 C8.5,89.7 5.8,88.4 3.8,86.3 C1.7,84.3 0.3,81.6 0,78.7 C0.1,77.5 0.4,76.3 1.1,75.2 C1.8,73.7 10.9,57.9 13.6,53.6 C15.1,51.1 16,48.1 16,45.1 C16,42.1 15.2,39.2 13.6,36.6 C10.9,32.1 1.8,16.4 1.1,14.9 C0.4,13.8 0.1,12.6 0,11.4 C0.3,8.5 1.6,5.8 3.7,3.8 C5.7,1.7 8.4,0.4 11.3,0.1 C12.5,0.2 13.7,0.5 14.9,1.2 C16.2,1.8 27.7,8.4 33.8,12 L35.2,12.8 C35.7,13.1 36.1,13.4 36.4,13.5 L37.1,13.9 L58.8,26.8 C58.3,21.9 55.8,17.4 51.9,14.4 C52.4,14.2 53,13.9 53.4,13.6 C57.7,10.9 73.4,1.8 75,1.1 C76.1,0.4 77.3,0.1 78.6,0 C81.5,0.3 84.1,1.6 86.2,3.7 Z M46.1,50.8 L50.7,46.2 C51.4,45.5 51.4,44.6 50.7,43.9 L46.1,39.3 C45.4,38.6 44.5,38.6 43.8,39.3 L39.2,43.9 C38.5,44.6 38.5,45.5 39.2,46.2 L43.8,50.8 C44.4,51.3 45.5,51.3 46.1,50.8 Z" id="Shape" fill="#FF694A"></path>
        </g>
    </g>
</svg>