<?xml version="1.0" encoding="UTF-8" standalone="no"?><!DOCTYPE svg PUBLIC "-//W3C//DTD SVG 1.1//EN" "http://www.w3.org/Graphics/SVG/1.1/DTD/svg11.dtd"><svg width="100%" height="100%" viewBox="0 0 1175 1163" version="1.1" xmlns="http://www.w3.org/2000/svg" xmlns:xlink="http://www.w3.org/1999/xlink" xml:space="preserve" xmlns:serif="http://www.serif.com/" style="fill-rule:evenodd;clip-rule:evenodd;stroke-linecap:round;stroke-linejoin:round;stroke-miterlimit:1.5;"><circle cx="589.583" cy="578.792" r="583.333" style="fill:#fff;"/><circle cx="589.583" cy="578.792" r="552.083" style="fill:#1c6ce8;"/><path d="M808.496,463.298l130.097,-130.097c-2.57,-7.255 -5.359,-12.894 -8.254,-16.747c-17.553,-35.421 -46.004,-63.931 -80.665,-80.602c-30.741,-18.455 -135.643,-32.06 -260.174,-32.06c-118.513,-0 -219.246,12.322 -255.197,29.416c-38.623,16.781 -70.129,48.033 -88.399,87.315c-3.544,6.346 -6.902,15.413 -10.01,26.809c-1.323,4.602 -2.475,9.291 -3.449,14.051c-10.823,48.807 -17.862,127.814 -17.862,216.904c-0,85.062 6.417,160.932 16.416,210.093c9.247,57.864 44.853,106.383 93.365,131.401c26.374,19.437 134.233,34.011 263.119,34.011c90.571,-0 170.758,-7.197 219.591,-18.223c53.867,-9.453 99.23,-45.464 123.498,-94.79c19.445,-26.558 34.011,-133.85 34.011,-262.005c-0,-29.219 -0.757,-57.353 -2.256,-83.691l-148.504,148.504c-3.227,44.891 -9.824,78.623 -17.801,89.519c-14.44,29.349 -41.431,50.775 -73.482,56.4c-29.055,6.56 -76.766,10.842 -130.656,10.842c-76.687,0 -140.864,-8.671 -156.556,-20.236c-28.865,-14.886 -50.05,-43.755 -55.552,-78.184c-5.95,-29.25 -9.768,-74.393 -9.768,-125.005c0,-53.008 4.188,-100.018 10.628,-129.058c0.58,-2.832 1.265,-5.622 2.052,-8.36c1.85,-6.781 3.847,-12.176 5.956,-15.952c10.871,-23.372 29.617,-41.967 52.598,-51.952c21.39,-10.171 81.327,-17.503 151.842,-17.503c38.07,0 73.058,2.137 100.562,5.705l-153.725,153.725c-16.104,14.094 -26.283,34.799 -26.283,57.864c-0,42.428 34.446,76.875 76.875,76.875c22.219,-0 42.25,-9.448 56.29,-24.541l0.178,0.178l161.405,-161.405l0.11,0.799Z" style="fill:#fff;stroke:#0c3074;stroke-width:4.17px;"/></svg>