<?xml version="1.0" encoding="UTF-8"?>
<svg width="151px" height="175px" viewBox="0 0 151 175" version="1.1" xmlns="http://www.w3.org/2000/svg" xmlns:xlink="http://www.w3.org/1999/xlink">
    <!-- Generator: Sketch 47.1 (45422) - http://www.bohemiancoding.com/sketch -->
    <title>logo</title>
    <desc>Created with Sketch.</desc>
    <defs></defs>
    <g id="Page-1" stroke="none" stroke-width="1" fill="none" fill-rule="evenodd">
        <g id="logo" fill-rule="nonzero">
            <path d="M75.5,5.8 L146.3,46.7 L146.3,128.5 L75.5,169.4 L4.7,128.5 L4.7,46.7 L75.5,5.8 L75.5,5.8 Z M75.5,0.9 C75.4,0.9 75.3,0.9 75.2,1 L0.6,44 C0.4,44.1 0.3,44.3 0.3,44.6 L0.3,130.7 C0.3,130.9 0.4,131.1 0.6,131.3 L75.1,174.3 C75.2,174.4 75.3,174.4 75.4,174.4 C75.5,174.4 75.6,174.4 75.7,174.3 L150.2,131.3 C150.4,131.2 150.5,131 150.5,130.7 L150.5,44.6 C150.5,44.4 150.4,44.2 150.2,44 L75.7,1 C75.7,0.9 75.6,0.9 75.5,0.9 L75.5,0.9 Z" id="Shape" fill="#79C6C0"></path>
            <g id="Group" transform="translate(33.000000, 46.000000)" fill="#3C3C3B">
                <path d="M74.8,40.8 L77.7,47 L71.9,47 L74.8,40.8 L74.8,40.8 Z M75,31.7 L74.7,31.7 C74.5,31.7 74.3,31.8 74.2,32 L65.6,50.5 C65.4,50.9 65.7,51.2 66.1,51.2 L83.6,51.2 C84,51.2 84.2,50.8 84.1,50.5 L75.5,32 C75.3,31.8 75.2,31.7 75,31.7 L75,31.7 Z" id="Shape"></path>
                <path d="M32.4,40.8 L35.3,47 L29.5,47 L32.4,40.8 L32.4,40.8 Z M32.5,31.7 L32.2,31.7 C32,31.7 31.8,31.8 31.7,32 L23.1,50.5 C22.9,50.9 23.2,51.2 23.6,51.2 L41.1,51.2 C41.5,51.2 41.7,50.8 41.6,50.5 L33,32 C32.9,31.8 32.7,31.7 32.5,31.7 L32.5,31.7 Z" id="Shape"></path>
                <path d="M0.9,1.5 C0.9,1.2 1.1,1 1.4,1 L7.8,1 C11,1 13.7,3.2 13.7,6.1 C13.7,8.2 11.8,9.8 10.5,10.4 C12,11 14.2,12.4 14.2,14.9 C14.2,18 11.5,20.2 8.2,20.2 L1.4,20.2 C1.1,20.2 0.9,20 0.9,19.7 L0.9,1.5 Z M7.3,8.7 C8.3,8.7 9.2,7.8 9.2,6.7 C9.2,5.6 8.3,4.8 7.3,4.8 L5.2,4.8 L5.2,8.6 L7.3,8.6 L7.3,8.7 Z M7.6,16.3 C8.7,16.3 9.6,15.4 9.6,14.3 C9.6,13.2 8.4,12.4 7.3,12.4 L5.1,12.4 L5.1,16.3 L7.6,16.3 Z" id="Shape"></path>
                <path d="M24.5,1.5 C24.5,1.2 24.7,1 25,1 L28.3,1 C28.6,1 28.8,1.2 28.8,1.5 L28.8,19.7 C28.8,20 28.6,20.2 28.3,20.2 L25,20.2 C24.7,20.2 24.5,20 24.5,19.7 L24.5,1.5 Z" id="Shape"></path>
                <path d="M48.8,0.7 C51.1,0.7 53.6,1.7 55.5,3.3 C55.7,3.5 55.8,3.8 55.6,4 L53.4,6.3 C53.2,6.5 52.9,6.5 52.7,6.3 C51.7,5.3 50.4,5 49.1,5 C46.1,5 43.7,7.5 43.7,10.6 C43.7,13.6 46.1,16.1 49.1,16.1 C49.9,16.1 50.7,16 51.5,15.7 L51.5,14 L49.8,14 C49.5,14 49.3,13.8 49.3,13.5 L49.3,10.8 C49.3,10.5 49.5,10.3 49.8,10.3 L55.3,10.3 C55.6,10.3 55.8,10.5 55.8,10.8 L55.8,18.2 C55.8,18.3 55.7,18.6 55.6,18.6 C55.6,18.6 52.8,20.4 48.8,20.4 C43.3,20.4 38.9,16.1 38.9,10.6 C38.9,5.1 43.3,0.7 48.8,0.7 Z" id="Shape"></path>
                <path d="M0.9,32.5 C0.9,32.2 1.1,32 1.4,32 L8.1,32 C13.4,32 17.8,36.3 17.8,41.6 C17.8,46.9 13.5,51.3 8.1,51.3 L1.4,51.3 C1.1,51.3 0.9,51.1 0.9,50.8 L0.9,32.5 Z M7.8,47.1 C10.9,47.1 13.2,44.7 13.2,41.5 C13.2,38.4 10.9,35.9 7.8,35.9 L5.2,35.9 L5.2,47 L7.8,47 L7.8,47.1 Z" id="Shape"></path>
                <path d="M51.6,36 L47.7,36 C47.4,36 47.2,35.8 47.2,35.5 L47.2,32.5 C47.2,32.2 47.4,32 47.7,32 L59.9,32 C60.2,32 60.4,32.2 60.4,32.5 L60.4,35.5 C60.4,35.8 60.2,36 59.9,36 L56,36 L56,50.7 C56,51 55.8,51.2 55.5,51.2 L52.2,51.2 C51.9,51.2 51.7,51 51.7,50.7 L51.7,36 L51.6,36 Z" id="Shape"></path>
                <path d="M0.9,63.5 C0.9,63.2 1.1,63 1.4,63 L12.8,63 C13.1,63 13.3,63.2 13.3,63.5 L13.3,66.5 C13.3,66.8 13.1,67 12.8,67 L5.2,67 L5.2,70.4 L11.5,70.4 C11.8,70.4 12,70.6 12,70.9 L12,73.9 C12,74.2 11.8,74.4 11.5,74.4 L5.2,74.4 L5.2,78.1 L12.8,78.1 C13.1,78.1 13.3,78.3 13.3,78.6 L13.3,81.6 C13.3,81.9 13.1,82.1 12.8,82.1 L1.4,82.1 C1.1,82.1 0.9,81.9 0.9,81.6 L0.9,63.5 Z" id="Shape"></path>
                <path d="M26.9,72.3 L21.3,63.7 C21.1,63.3 21.3,62.9 21.8,62.9 L25.8,62.9 C26,62.9 26.2,63 26.2,63.1 L29.4,68.2 L29.4,68.2 L32.6,63.1 C32.7,63 32.8,62.9 33,62.9 L37,62.9 C37.5,62.9 37.7,63.3 37.5,63.7 L31.9,72.3 L37.7,81.4 C37.9,81.8 37.7,82.2 37.3,82.2 L33.5,82.2 C33.3,82.2 33.1,82.1 33,82 L29.4,76.4 L29.3,76.4 L25.8,82 C25.7,82.1 25.6,82.2 25.3,82.2 L21.5,82.2 C21,82.2 20.8,81.8 21,81.4 L26.9,72.3 Z" id="Shape"></path>
                <path d="M46,63.5 C46,63.2 46.2,63 46.5,63 L53.1,63 C56.5,63 59.3,65.7 59.3,69.1 C59.3,72.5 56.5,75.3 53.2,75.3 L50.3,75.3 L50.3,81.8 C50.3,82.1 50.1,82.3 49.8,82.3 L46.6,82.3 C46.3,82.3 46.1,82.1 46.1,81.8 L46.1,63.5 L46,63.5 Z M52.9,71.2 C54.1,71.2 55.1,70.3 55.1,69 C55.1,67.8 54.1,67 52.9,67 L50.3,67 L50.3,71.2 L52.9,71.2 Z" id="Shape"></path>
                <path d="M84.7,72.6 C84.7,78.1 80.3,82.5 74.8,82.5 C69.3,82.5 64.9,78.1 64.9,72.6 C64.9,67.1 69.3,62.7 74.8,62.7 C80.3,62.7 84.7,67.1 84.7,72.6 Z M80.3,72.6 C80.3,69.6 77.8,67.1 74.8,67.1 C71.8,67.1 69.3,69.6 69.3,72.6 C69.3,75.6 71.8,78.1 74.8,78.1 C77.8,78.1 80.3,75.6 80.3,72.6 Z" id="Shape"></path>
            </g>
        </g>
    </g>
</svg>