<?xml version="1.0" encoding="UTF-8"?>
<svg width="615.1px" height="56.4px" viewBox="0 0 615.1 56.4" version="1.1" xmlns="http://www.w3.org/2000/svg" xmlns:xlink="http://www.w3.org/1999/xlink">
    <title>Group 2</title>
    <g id="Page-1" stroke="none" stroke-width="1" fill="none" fill-rule="evenodd">
        <g id="Group-2" fill-rule="nonzero">
            <path d="M287.1,55.2 L287.1,7.2 L268.2,7.2 L265.6,1.2 L310.1,1.2 L310.1,7.2 L293.1,7.2 L293.1,55.2 L287.1,55.2 Z M331.1,1.2 L337.1,1.2 L337.1,55.2 L331.1,55.2 L331.1,1.2 Z M364.1,55.2 L364.1,1.2 L370.1,1.2 L370.1,50.2 L395.1,50.2 L395.1,55.2 L364.1,55.2 Z M417.1,55.2 L417.1,1.2 L423.1,1.2 L423.1,50.2 L448.1,50.2 L448.1,55.2 L417.1,55.2 Z" id="Shape" fill="#FFFAFA"></path>
            <path d="M470.1,1.2 L476.1,1.2 L476.1,55.2 L470.1,55.2 L470.1,1.2 Z M525.3,56.4 C517.7,56.4 511.6,53.8 507.2,48.7 C502.9,43.7 500.7,36.7 500.7,28.1 C500.7,19.5 502.9,12.6 507.3,7.6 C511.7,2.6 517.8,0 525.4,0 C533,0 539.1,2.6 543.5,7.6 C547.8,12.6 550,19.5 550,28.1 C550,36.7 547.8,43.6 543.5,48.6 C539,53.8 532.9,56.4 525.3,56.4 Z M525.3,5.6 C519.4,5.6 514.7,7.5 511.5,11.4 C508.3,15.3 506.6,20.9 506.6,28.2 C506.6,35.5 508.2,41.2 511.4,45.1 C514.6,49 519.1,50.9 525.2,50.9 C531.3,50.9 535.8,49 539,45.1 C542.2,41.2 543.8,35.5 543.8,28.1 C543.8,20.8 542.2,15.1 539,11.2 C535.9,7.5 531.4,5.6 525.3,5.6 L525.3,5.6 Z" id="Shape" fill="#51A620"></path>
            <path d="M609.1,1.2 L615.1,1.2 L615.1,55.2 L609,55.2 L580,11.6 C580.2,15.7 580.1,18.1 580.1,20.4 L580.1,55.2 L574.1,55.2 L574.1,1.2 L580.1,1.2 L609.1,44.7 L609.1,1.2 Z M190.1,1.2 L183.3,1.2 L165.1,38.4 L146.9,1.2 L139.1,1.2 L139.1,55.2 L145.1,55.2 L145.1,15.1 C145.1,13.4 145.1,11.6 145,10 L163.2,47.2 L167.1,47.2 L185.1,10.2 C185,11.6 185.2,13.2 185.2,14.6 L185.2,55.2 L191.2,55.2 L191.2,1.2 L190.1,1.2 Z M251.3,55.2 L257.6,55.2 L236,0.2 L232.3,0.2 L210.2,55.2 L216.4,55.2 L223.2,38.2 L244.4,38.2 L251.3,55.2 Z M232.9,14.1 C233.3,13 233.7,11.9 234.1,10.7 C234.5,12 234.9,13.1 235.3,13.9 L242.2,32.2 L225.8,32.2 L232.9,14.1 Z" id="Shape" fill="#FFFFFF"></path>
            <path d="M18.6,55.2 L62.8,11 L53.5,1.6 L0,55.2 L18.6,55.2 Z M55.8,55.2 L72.1,38.9 L88.4,55.2 L107.1,55.2 L72.1,20.3 L37.2,55.2 L55.8,55.2 Z" id="Shape" fill="#51A620"></path>
        </g>
    </g>
</svg>