<?xml version="1.0" encoding="UTF-8"?>
<svg width="110.1px" height="33px" viewBox="0 0 110.1 33" version="1.1" xmlns="http://www.w3.org/2000/svg" xmlns:xlink="http://www.w3.org/1999/xlink">
    <title>Group</title>
    <g id="Page-1" stroke="none" stroke-width="1" fill="none" fill-rule="evenodd">
        <g id="Group" transform="translate(0, 0)" fill-rule="nonzero">
            <path d="M103.9,14.2 C104.2,13.9 104.5,13.6 104.9,13.4 C105.5,13.1 106.1,13 106.8,13 C107.4,13 108.1,13.1 108.7,13.4 C109.8,14 110.1,14.9 110.1,16.5 L110.1,23.6 L107.1,23.6 L107.1,17.7 C107.1,16.8 107.1,16.4 107,16.1 C106.8,15.6 106.2,15.3 105.6,15.3 C104,15.3 104,16.6 104,17.9 L104,23.5 L100.9,23.5 L100.9,13.3 L104,13.3 L103.9,14.2 L103.9,14.2 Z M92.6,19.3 C92.1,19.5 91.3,19.8 91.3,20.6 C91.3,21.2 91.9,21.7 92.5,21.7 C92.9,21.7 93.2,21.6 93.6,21.4 C94.6,20.8 94.6,19.8 94.7,18.7 L92.6,19.3 Z M88.7,16.2 C88.8,15.5 88.9,14.6 89.8,13.9 C90.7,13.2 92,13 93.2,13 C94.5,13 97.6,13.3 97.6,16 L97.6,22 C97.6,23.1 97.7,23.3 97.9,23.6 L94.9,23.6 L94.9,22.6 C94.1,23.2 93.3,23.8 91.7,23.8 C89.3,23.8 88.3,22.1 88.3,20.7 C88.3,19 89.6,18.1 90.5,17.7 C91.3,17.3 93.3,17 94.6,16.7 L94.6,16.2 C94.6,15.7 94.5,14.9 93.4,14.9 C92,14.9 91.9,15.7 91.8,16.1 L88.7,16.2 Z M83.5,14.3 C84.2,13.7 84.9,13.3 86.5,13.1 L86.5,15.8 L85.5,16 C84,16.3 83.6,16.5 83.6,17.8 L83.6,23.6 L80.5,23.6 L80.5,13.2 L83.5,13.2 L83.5,14.3 L83.5,14.3 Z M73,10.3 L76,10.3 L76,13.5 L78,13.5 L78,15.4 L76,15.4 L76,20 C76,20.6 76,21.2 76.8,21.2 L77.9,21.2 L77.9,23.6 C77.4,23.7 76.8,23.7 76.3,23.8 C75.2,23.8 74.1,23.7 73.4,22.8 C73,22.1 73,21.3 73,20.3 L73,15.3 L71.5,15.3 L71.5,13.5 L73,13.5 L73,10.3 L73,10.3 Z M66.8,17.1 C66.7,16.7 66.7,16.1 66.2,15.6 C65.8,15.2 65.3,15 64.7,15 C64.1,15 63.5,15.2 63.1,15.7 C62.7,16.2 62.6,16.6 62.5,17.1 L66.8,17.1 Z M69.8,21 C69.5,21.6 69,22.1 68.6,22.6 C67.5,23.6 66.1,24.1 64.7,24.1 C61.6,24.1 59.5,22.1 59.5,18.7 C59.5,16.2 60.7,13 64.8,13 C65.4,13 67.2,13.1 68.5,14.5 C69.8,15.9 69.9,18 70,19.1 L62.6,19.1 C62.6,20.4 63.3,21.7 65,21.7 C66.6,21.7 67.3,20.6 67.6,19.9 L69.8,21 Z M48.3,13.3 L51.5,13.3 C52.8,17.9 53,18.9 53.3,20.8 C53.7,18.5 53.8,18.2 54.4,15.8 L55,13.3 L58.1,13.3 L54.7,23.6 L51.5,23.6 L48.3,13.3 Z M43.1,13.2 L46.1,13.2 L46.1,23.6 L43.1,23.6 L43.1,13.2 Z M43.1,9.6 L46.1,9.6 L46.1,12 L43.1,12 L43.1,9.6 Z M40.7,9.6 L40.7,12.3 L33.4,12.3 L33.4,15.2 L40.1,15.2 L40.1,18 L33.4,18 L33.4,23.6 L29.9,23.6 L29.9,9.6 L40.7,9.6 Z" id="Shape" fill="#FFFFFF"></path>
            <path d="M3.2,33 L6.5,33 C6.8,33 7,32.8 7,32.5 C7,32.4 7,32.4 7,32.3 L4.3,25 C4.2,24.8 4,24.7 3.8,24.7 L0.5,24.7 C0.2,24.8 -7.10542736e-15,25 -7.10542736e-15,25.2 C-7.10542736e-15,25.3 -7.10542736e-15,25.3 -7.10542736e-15,25.4 L2.7,32.7 C2.8,32.9 3,33 3.2,33 M16.8,0.6 L19.5,7.9 C19.6,8.1 19.8,8.2 20,8.2 L23.3,8.2 C23.6,8.2 23.8,8 23.8,7.7 C23.8,7.6 23.8,7.6 23.8,7.5 L21.1,0.2 C21,0.1 20.8,3.55271368e-15 20.6,3.55271368e-15 L17.3,3.55271368e-15 C17,3.55271368e-15 16.8,0.2 16.8,0.5 L16.8,0.6 M9.3,33 L12.6,33 C12.9,33 13.1,32.8 13.1,32.5 C13.1,32.4 13.1,32.4 13.1,32.3 L7.4,16.8 C7.3,16.6 7.1,16.5 6.9,16.5 L3.6,16.5 C3.3,16.5 3.1,16.7 3.1,17 C3.1,17.1 3.1,17.1 3.1,17.2 L8.8,32.7 C8.9,32.9 9.1,33 9.3,33 M15.8,33 L19.1,33 C19.4,33 19.6,32.8 19.6,32.5 C19.6,32.4 19.6,32.4 19.6,32.4 L7.8,0.3 C7.8,0.1 7.6,3.55271368e-15 7.4,3.55271368e-15 L4,3.55271368e-15 C3.8,3.55271368e-15 3.6,0.2 3.6,0.5 C3.6,0.6 3.6,0.6 3.6,0.7 L15.4,32.7 C15.5,32.9 15.6,33 15.8,33 M16.4,16.5 L19.7,16.5 C20,16.5 20.2,16.3 20.2,16 C20.2,15.9 20.2,15.9 20.2,15.8 L14.5,0.3 C14.4,0.1 14.2,0 14,0 L10.7,0 C10.4,0 10.2,0.2 10.2,0.5 C10.2,0.6 10.2,0.6 10.2,0.7 L16,16.2 C16.1,16.4 16.2,16.5 16.4,16.5" id="Shape_1_" fill="#244AE5"></path>
        </g>
    </g>
</svg>